<svg xmlns="http://www.w3.org/2000/svg" viewBox="0 0 233.216 265.758"><path d="M233.206 132.88c0-.128.01-.253.01-.38h-.02c-.405-22.445-18.714-40.52-41.256-40.52-1.384 0-2.75.072-4.1.205.004-.028.007-.055 0 0-35.28-.204-46.94-20.685-46.94-47.273.077-.008.038-.004 0 0 .105-1.2.17-2.41.17-3.635C141.07 18.48 122.59 0 99.792 0S58.516 18.48 58.516 41.276c0 22.796 18.48 41.276 41.276 41.276 2.623 0 4.518-.136 7.684.114 27.583.083 43.458 15.032 42.583 36.833v26.757c.874 21.8-15 36.75-42.584 36.833-3.167.25-5.06.114-7.684.114-22.796 0-41.276 18.48-41.276 41.276 0 22.796 18.48 41.276 41.276 41.276 22.796 0 41.276-18.48 41.276-41.276 0-1.226-.064-2.437-.17-3.635.04.004.078.008 0 0 0-26.588 11.66-47.07 46.94-47.273.008.055.004.028 0 0 1.35.133 2.716.204 4.1.204 22.542 0 40.852-18.073 41.257-40.52h.02c0-.125-.008-.25-.01-.377z"/><path d="M82.533 133.258h.02c0-.127-.01-.252-.01-.38 0-.126.01-.25.01-.378h-.02c-.406-22.445-18.715-40.52-41.257-40.52S.426 110.056.02 132.5H0c0 .127.008.252.01.38-.002.126-.01.25-.01.378h.02c.405 22.445 18.714 40.52 41.256 40.52s40.852-18.075 41.257-40.52z"/></svg>